<svg xmlns="http://www.w3.org/2000/svg" xmlns:xlink="http://www.w3.org/1999/xlink" width="45" zoomAndPan="magnify" viewBox="0 0 375 374.999991" height="45" preserveAspectRatio="xMidYMid meet" version="1.0"><defs><g/><clipPath id="c200c1d8c7"><path d="M 17.25 0 L 357.75 0 C 362.324219 0 366.710938 1.816406 369.949219 5.050781 C 373.183594 8.289062 375 12.675781 375 17.25 L 375 357.75 C 375 362.324219 373.183594 366.710938 369.949219 369.949219 C 366.710938 373.183594 362.324219 375 357.75 375 L 17.25 375 C 12.675781 375 8.289062 373.183594 5.050781 369.949219 C 1.816406 366.710938 0 362.324219 0 357.75 L 0 17.25 C 0 12.675781 1.816406 8.289062 5.050781 5.050781 C 8.289062 1.816406 12.675781 0 17.25 0 Z M 17.25 0 " clip-rule="nonzero"/></clipPath></defs><g clip-path="url(#c200c1d8c7)"><rect x="-37.5" width="450" fill="#ec4899" y="-37.499999" height="449.999989" fill-opacity="1"/></g><g fill="#ffffff" fill-opacity="1"><g transform="translate(50.396485, 413.734103)"><g><path d="M 127.203125 7.203125 C 98.796875 7.203125 72.691406 1.90625 48.890625 -8.6875 C 25.097656 -19.289062 5.601562 -34.394531 -9.59375 -54 L 44.40625 -118.796875 C 67.195312 -87.992188 93.195312 -72.59375 122.40625 -72.59375 C 162 -72.59375 181.796875 -95.796875 181.796875 -142.203125 L 181.796875 -342 L 34.203125 -342 L 34.203125 -420 L 278.40625 -420 L 278.40625 -147.59375 C 278.40625 -96 265.601562 -57.300781 240 -31.5 C 214.394531 -5.695312 176.796875 7.203125 127.203125 7.203125 Z M 127.203125 7.203125 "/></g></g></g></svg>